<?xml version="1.0" encoding="utf-8"?>
<svg width="50px" height="50px" viewBox="0 0 50 50" version="1.1" xmlns:xlink="http://www.w3.org/1999/xlink" xmlns="http://www.w3.org/2000/svg">
  <defs>
    <path d="M0 0L50 0L50 50L0 50L0 0Z" id="path_1" />
    <clipPath id="clip_1">
      <use xlink:href="#path_1" />
    </clipPath>
  </defs>
  <g id="Google Maps" clip-path="url(#clip_1)">
    <path d="M0 0L50 0L50 50L0 50L0 0Z" id="Google-Maps" fill="none" fill-rule="evenodd" stroke="none" />
    <path d="M25 1C15.62 1 8 8.62003 8 18C8 21.9349 9.33847 25.5634 11.5781 28.4414C11.579 28.4425 11.5792 28.4442 11.5801 28.4453C12.8818 30.2001 15.5403 33.4456 17.9844 37.0273C20.4339 40.6171 22.6096 44.5763 22.9473 47.2559C22.9479 47.2604 22.9485 47.265 22.9492 47.2695C23.0877 48.2593 23.9461 49 24.9395 49C25.9331 49 26.8132 48.2532 26.9336 47.25C27.264 44.6445 29.3447 40.8429 31.7285 37.3535C34.1138 33.8619 36.7534 30.642 38.1504 28.7793C38.1402 28.7929 38.1889 28.7264 38.2129 28.6973C40.5767 25.7777 42 22.0492 42 18C42 8.62003 34.38 1 25 1L25 1ZM25 3C25.6091 3 26.1875 3.10953 26.7773 3.17969L19.8574 11.6348L14.4941 7.29883C17.1986 4.64388 20.9001 3 25 3L25 3ZM29.0098 3.60742C33.0788 4.73682 36.4159 7.50735 38.3027 11.1934L32.9473 17.7402C32.8016 13.4578 29.3171 10 25 10C24.4814 10 24.0286 10.202 23.5371 10.2969L29.0098 3.60742L29.0098 3.60742ZM13.2012 8.82422L18.5918 13.1816L10.7949 22.7109C10.3037 21.2272 10 19.654 10 18C10 14.5221 11.2237 11.365 13.2012 8.82422L13.2012 8.82422ZM25 12C28.3308 12 31 14.6692 31 18C31 21.3308 28.3308 24 25 24C21.6692 24 19 21.3308 19 18C19 14.6692 21.6692 12 25 12L25 12ZM39.1738 13.2852C39.6683 14.7754 40 16.3413 40 18C40 21.5861 38.7436 24.8703 36.6523 27.4492C36.6329 27.4737 36.6147 27.4992 36.5977 27.5254C36.663 27.4274 36.6288 27.4761 36.5508 27.5801C35.2178 29.3574 32.5259 32.6387 30.0762 36.2246C27.6264 39.8105 25.3688 43.6615 24.9473 47.0059C24.9473 47.0078 24.9473 47.0098 24.9473 47.0117C24.9477 47.0085 24.9658 47 24.9395 47C24.9328 47 24.9312 47.0024 24.9297 46.9922C24.521 43.7856 22.3997 40.1017 20.0781 36.627L39.1738 13.2852L39.1738 13.2852ZM17.0469 18.2305C17.1766 22.5272 20.6725 26 25 26C25.5048 26 25.9447 25.8009 26.4238 25.7109L18.8984 34.9102C16.6487 31.7341 14.2557 28.694 13.1738 27.2344C13.1687 27.2278 13.1635 27.2213 13.1582 27.2148C12.5677 26.4564 12.2116 25.5404 11.7734 24.6758L17.0469 18.2305L17.0469 18.2305Z" id="Shape" fill="#336066" fill-rule="evenodd" stroke="none" />
  </g>
</svg>