<?xml version="1.0" encoding="utf-8"?>
<svg width="50px" height="50px" viewBox="0 0 50 50" version="1.1" xmlns:xlink="http://www.w3.org/1999/xlink" xmlns="http://www.w3.org/2000/svg">
  <defs>
    <path d="M0 0L50 0L50 50L0 50L0 0Z" id="path_1" />
    <clipPath id="clip_1">
      <use xlink:href="#path_1" />
    </clipPath>
  </defs>
  <g id="Whatsapp 2" clip-path="url(#clip_1)">
    <path d="M0 0L50 0L50 50L0 50L0 0Z" id="Whatsapp-2" fill="none" fill-rule="evenodd" stroke="none" />
    <path d="M23.4375 3.125C12.2314 3.125 3.125 12.2314 3.125 23.4375C3.125 27.4902 4.43115 31.2012 6.46973 34.375L2.97852 44.1284L13.8428 41.0645C16.7236 42.6392 19.9219 43.75 23.4375 43.75C34.6436 43.75 43.75 34.6436 43.75 23.4375C43.75 12.2314 34.6436 3.125 23.4375 3.125L23.4375 3.125ZM23.4375 6.25C32.9468 6.25 40.625 13.9282 40.625 23.4375C40.625 32.9468 32.9468 40.625 23.4375 40.625C20.1782 40.625 17.1631 39.7095 14.5508 38.1348L13.977 37.7808L7.95898 39.4653L9.91211 34.0454L9.43603 33.3862C7.43408 30.5664 6.25 27.1484 6.25 23.4375C6.25 13.9282 13.9282 6.25 23.4375 6.25L23.4375 6.25ZM15.8203 12.5C15.4663 12.5 14.8804 12.6465 14.3799 13.2324C13.8916 13.8062 12.5 15.21 12.5 18.0664C12.5 20.9106 14.4287 23.6694 14.6973 24.0601C14.9658 24.4507 18.4937 30.2978 23.8892 32.8125C25.1709 33.4106 26.1719 33.7646 26.9531 34.0332C28.2471 34.4727 29.4189 34.4116 30.3467 34.2651C31.3843 34.0942 33.5327 32.8613 33.9844 31.5063C34.4238 30.1514 34.436 28.9917 34.2896 28.7476C34.1675 28.5034 33.8013 28.3569 33.2642 28.0762C32.7271 27.7832 30.0781 26.3794 29.5898 26.1963C29.1016 25.9888 28.7354 25.9033 28.3691 26.477C28.0151 27.063 26.9897 28.3691 26.6724 28.7476C26.355 29.1382 26.0498 29.187 25.5127 28.894C24.9634 28.6011 23.23 27.9907 21.1792 26.0132C19.5801 24.4751 18.4937 22.583 18.1885 21.9971C17.8711 21.4111 18.1519 21.106 18.4204 20.8252C18.6645 20.5566 18.9575 20.1416 19.2261 19.7998C19.4946 19.4702 19.5801 19.2139 19.7632 18.8355C19.9463 18.4448 19.8608 18.103 19.7266 17.8223C19.5801 17.5293 18.5059 14.6729 18.0664 13.5132C17.627 12.3901 17.1753 12.5366 16.8457 12.5244C16.5405 12.5 16.1743 12.5 15.8203 12.5L15.8203 12.5Z" id="Shape" fill="#336066" fill-rule="evenodd" stroke="none" />
  </g>
</svg>